<svg enable-background="new 0 0 139 157" viewBox="0 0 139 157" xmlns="http://www.w3.org/2000/svg"><path d="m47.63 118.626c-4.938 9.899-8.32 20.709-9.821 32.112-.418 3.172 2.004 6.004 5.204 6.004h.22c2.656 0 4.865-1.987 5.212-4.62 5.679-43.182 41.463-76.879 85.595-79.276 2.813-.153 5.038-2.431 5.038-5.249v-.198c0-2.991-2.496-5.413-5.483-5.255-37.718 1.996-69.992 24.462-85.965 56.482z"/><path d="m47.63 63.579c-24.288 22.096-40.522 52.874-43.837 87.426-.295 3.077 2.15 5.737 5.242 5.737h.192c2.705 0 4.96-2.057 5.22-4.75 2.725-28.256 14.836-53.764 33.183-73.371 21.781-23.276 52.338-38.237 86.398-39.588 2.819-.112 5.049-2.418 5.049-5.239v-.204c0-2.975-2.471-5.377-5.444-5.26-33.072 1.301-63.108 14.42-86.003 35.249z"/><path d="m11.5 67.14v-61.365c0-3.071-2.49-5.561-5.561-5.561s-5.561 2.49-5.561 5.561v79.486c3.24-6.345 6.962-12.402 11.122-18.121z"/><path d="m43.5 36.727v-30.952c0-3.071-2.49-5.561-5.561-5.561s-5.561 2.49-5.561 5.561v39.571c3.553-3.057 7.263-5.936 11.122-8.619z"/></svg>